<svg width="296" height="189" viewBox="0 0 296 189" fill="none" xmlns="http://www.w3.org/2000/svg">
    <path fill-rule="evenodd" clip-rule="evenodd" d="M154 -3.05176e-05V77H187C233 71 232 3.5 186.5 -3.05176e-05H154ZM173 57V20.5H185C206 24.5 206.5 51.5 185 57H173Z" fill="#FFE12F"/>
    <path fill-rule="evenodd" clip-rule="evenodd" d="M236 -3.05176e-05V77H255V56.5H270.5C304.5 55 304.5 1 268 -3.05176e-05H236ZM255 39V17H268.5C281.5 19 282 37 269.5 39H255Z" fill="#FFE12F"/>
    <path d="M2 189V112H51V129H22V141H47V159H22V189H2Z" fill="white"/>
    <path d="M67 189V112H77L108 140.5L139 112H149V189H128V150L108 168.5L87 150V189H67Z" fill="white"/>
    <path d="M71 77V0H92V27H115V0H136V77H115V48H92V77H71Z" fill="#FFE12F"/>
    <path d="M54.5 77V60H33L48.5 39C52.1077 33.6006 52.5 32 52.5 25.5C50.5 10 42.5 0 27 0C12 0 0.999981 7.5 1 25H18C18.5 14 34 14 35.5 25V28L0 77H54.5Z" fill="#FFE12F"/>
</svg>
