<svg xmlns="http://www.w3.org/2000/svg" width="200" height="56" fill="none">
    <title>2 Heures de Perdues</title>
    <path fill="#FDE84F" d="M100 0v22.09h5.9V16.2h3.6l1.69 2.9 1.68 2.9 3.34.04 3.34.05V21.92l-2.21-3.77-2.22-3.78V13.95l.58-.66.59-.66.53-1.13.53-1.13.17-1.06.17-1.06-.1-.85-.1-.85-.28-.88-.28-.89-.44-.79-.45-.8-1-.95-1.02-.95-1.24-.59-1.25-.59-5.76-.05L100 0ZM58.51.02v22.07h13.83v-4.6l-4-.04-4.02-.05v-4.05l3.55-.05 3.55-.05V8.5l-3.55-.05-3.55-.05-.05-1.8-.06-1.79H72.34V.02H58.51Zm-23.97 0v22.07h5.71l.05-4.19.05-4.18h7l.05 4.18.05 4.19h5.71V.02h-5.71v7.91h-7.2V.02h-5.71Zm42.6 0v13.91l.2 1.09.2 1.09.58 1.2.58 1.18 1.02 1.04 1.01 1.03.83.43.83.42 1.02.33 1.01.33h1.4l1.38.02 1.09-.29 1.08-.28.93-.5.93-.5.93-.92.93-.93.6-1.14.61-1.14.27-1.24.26-1.25V6.96l.01-6.94h-5.9v13.8l-.26.62-.25.61-.7.53-.7.53h-2.12l-.51-.38-.51-.38-.38-.5-.38-.51-.05-7.16-.05-7.16H77.14Zm46.28 0v22.07h13.83v-4.6l-4-.04-4.02-.05-.05-2.07-.05-2.07h7.2V8.48H129.14V4.8h8.12V.01h-13.84ZM9.37.12H5.31l-1.07.5-1.06.48-1.02 1.02-1.02 1.02-.46 1.01L.2 5.17l-.1 1L0 7.2h4.59l.38-.91.39-.91.62-.38.62-.37h1.23l.63.3.64.3.37.52.38.53.1.6.1.61-.27.64-.27.63-1.84 2.58-1.83 2.57L2.95 18 .07 22.08h15.29v-4.6H9.27v-.24l2.1-2.97 2.1-2.96.46-.92.47-.93.2-1.03.19-1.04-.19-1.15-.18-1.14-.46-.97-.46-.97-.84-.93-.83-.92-1.23-.6-1.23-.6Zm137.38 0L145.7.6l-1.05.5-.8.8-.82.8-.53 1.1-.54 1.1V8.74l.52 1.02.52 1 .84.87.84.86 1.1.48 1.08.5 1.05.1 1.06.1.49.25.49.24.2.64.22.63-.29.56-.29.56-.35.19-.36.19h-.97l-.37-.2-.37-.2-.27-.63-.26-.63h-5.17l.09.42.08.41.12.73.12.72.43.86.44.86.49.57.48.58.57.4.56.4 1.04.43 1.03.44 1.66-.06 1.66-.06 1.04-.48 1.03-.48.74-.66.73-.66.58-1.08.58-1.09.16-1.13.15-1.14-.16-1.03-.16-1.04-.57-1.07-.58-1.07-.81-.75-.82-.75-.99-.45-.98-.45-.99-.1-.98-.1-.5-.19-.49-.18-.27-.58-.28-.58.1-.5.1-.49.44-.42.45-.42h1.27l.46.43.45.43.06.39.06.4 2.55.02 2.56.04-.08-.96-.08-.95-.48-1.05-.48-1.04-.85-.86-.86-.85L151.5.6l-1.05-.49H146.75Zm-40.84 4.64 2.25.07 2.26.07.6.32.58.32.48.62.48.63.1.65.11.65-.12.66-.13.66-.58.66-.59.67-.6.25-.6.25h-4.25V4.76ZM57.05 33v22.09h5.71l.05-2.9.05-2.9 2.86-.1 2.86-.1.83-.34.83-.35.74-.5.74-.5.8-.86.8-.86.58-1.23.58-1.22v-4.05l-.42-1.01-.4-1.01-.7-.92-.7-.91-.92-.7-.92-.7-1.01-.4-1.01-.42-5.68-.05-5.67-.06Zm40.2 0v22.09h5.9V49.2h3.5l.45.7.44.68 1.32 2.25 1.33 2.26H116.8v-.2l-2.21-3.76-2.21-3.75v-.3l.51-.64.52-.64.38-.64.38-.65.34-1 .33-1.02-.01-1.4v-1.4l-.34-.99-.32-1-.6-.91-.58-.92-.88-.8-.87-.8-1.23-.58-1.23-.58-5.76-.05-5.77-.06Zm-97.18.02v22.07h9.81l1.13-.3 1.14-.29 1.29-.66 1.29-.67 1.3-1.3 1.3-1.29.66-1.29.67-1.28.3-1.13.29-1.13V42.3l-.28-1.02-.27-1-.67-1.38-.68-1.37-1.31-1.3-1.31-1.3-1.38-.68-1.39-.69-1.1-.27-1.1-.28H.08Zm24.16 0v22.07h13.83v-4.6h-8.12v-4.23h7l.05-2.4.05-2.38h-7.1V37.8h8.12V33.02H24.23Zm54.4 0v22.07h13.83v-4.6l-4.01-.04-4.01-.05v-4.05l3.55-.05 3.55-.05v-4.77h-7.2V37.8h8.12v-4.79H78.63Zm42.05 0v22.16l5.39-.1 5.4-.1 1.24-.5 1.25-.48 1-.67 1-.66 1-1.08 1.01-1.08.56-.98.55-.97.4-1.29.42-1.29v-3.86l-.49-1.43-.48-1.43-.75-1.19-.75-1.19-1.14-1.02-1.14-1.03-1.47-.7-1.48-.71-.98-.2-.97-.2h-9.57Zm23.97 0V46.9l.28 1.29.27 1.28.5 1 .52 1.02 1.01 1.03 1.02 1.04.82.43.84.42 1 .33 1.02.33h1.48l1.47.01.95-.25.95-.25.99-.53.99-.52 1.04-1.05 1.05-1.05.55-1.16.54-1.16.2-.97.21-.98V33.02H156.46l-.05 7.16-.05 7.16-.39.52-.38.51-.63.43-.63.43-.98-.07-.97-.08-.49-.36-.49-.37-.38-.5-.38-.51-.05-7.16-.05-7.16H144.65Zm22.86 0v22.07h13.84v-4.6h-7.93v-4.23h7V41.48h-7V37.8h7.93v-4.79H167.5Zm23.52.1-1.05.48-1.05.5-.83.82-.83.83-.5.98-.51.98-.08 1.69-.08 1.69.3.86.29.87.57.89.58.89.9.67.92.67 1.12.34 1.11.35h1.44l.54.5.55.5.03.38.03.36-.02.33-.02.33-.45.46-.46.45h-1.25l-.47-.37-.46-.36-.12-.47-.12-.46h-5.15v.32l.18.96.18.96.48.95.47.95.59.61.59.62.8.47.8.47.67.25.68.25 1.68-.05 1.67-.05 1.27-.64 1.26-.64.77-.95.77-.95.4-1.04.38-1.03V47.01l-.38-1.02-.38-1.02-.7-.88-.7-.89-.9-.57-.9-.57-1-.29-1-.3h-1.33l-.4-.27-.4-.27-.2-.62-.2-.62.17-.44.17-.44.4-.36.4-.35.63.01.65.02.3.25.3.25.25.6.25.6h5.02l-.08-1-.09-.98-.5-1.04-.5-1.03-.83-.82-.82-.81-1.06-.52-1.05-.52H191.03ZM66.55 37.77l.8.23.82.22.6.61.62.61.23.76.22.75-.22.86-.23.85-.5.53-.5.53-.59.25-.6.26h-4.44l.05-3.18.05-3.17 1.85-.05 1.84-.06Zm36.6.02h1.99l1.98.02.7.25.7.25.38.34.38.34.35.68.35.68v1.55l-.46.78-.46.78-.8.38-.8.39H103.16V37.8Zm23.24 1.06 2.08.07 2.07.07.86.5.86.5.65.76.65.76.29.84.29.84v2.08l-.57 1.13-.56 1.12-.57.48-.57.47-.75.4-.76.4-1.99.07-1.98.08V38.86ZM5.8 38.9H9.22l.84.29.85.29.76.65.77.65.48.95.48.94.08 1.1.09 1.11-.4 1.06-.4 1.05-.82.82-.82.82-1.02.38-1.02.38H5.8V38.9Z"/>
</svg>
